<?xml version="1.0" encoding="UTF-8"?>
<svg version="1.1" xmlns="http://www.w3.org/2000/svg" width="500" height="500">
<path d="M0 0 C165 0 330 0 500 0 C500 165 500 330 500 500 C335 500 170 500 0 500 C0 335 0 170 0 0 Z " fill="#FF914D" transform="translate(0,0)"/>
<path d="M0 0 C165 0 330 0 500 0 C500 77.55 500 155.1 500 235 C499.67 235 499.34 235 499 235 C498.94054199 234.43418213 498.88108398 233.86836426 498.81982422 233.28540039 C496.20551837 209.2487117 492.4604441 178.67277374 479 158 C478.42490986 156.59656901 477.88381536 155.17879465 477.375 153.75 C467.31091379 128.17360047 449.91865252 105.647695 431 86 C430.24734863 85.21447754 430.24734863 85.21447754 429.47949219 84.41308594 C422.71822286 77.39093162 415.6896101 71.0128479 408 65 C407.05125 64.22269531 406.1025 63.44539063 405.125 62.64453125 C356.44820738 23.59133921 291.73448979 7.99030038 230.34545898 13.82666016 C191.52581752 18.17624928 151.80685159 31.98025527 120 55 C119.39623535 55.43538086 118.7924707 55.87076172 118.17041016 56.31933594 C99.79879902 69.63315709 83.07461451 84.13504674 69 102 C68.34644531 102.78632812 67.69289063 103.57265625 67.01953125 104.3828125 C56.69637772 116.8695012 48.50785203 130.68539459 41 145 C40.6198877 145.71542969 40.23977539 146.43085938 39.84814453 147.16796875 C25.31705072 174.85584903 16.04878569 207.22485435 15.7265625 238.5390625 C15.71407974 239.64597946 15.70159698 240.75289642 15.68873596 241.89335632 C15.47509137 265.37937535 15.30827151 288.08766218 21 311 C21.28834717 312.21236328 21.28834717 312.21236328 21.58251953 313.44921875 C22.7914083 318.40144941 24.31564657 323.19131233 26 328 C26.33580078 328.9787207 26.67160156 329.95744141 27.01757812 330.96582031 C28.16415542 334.29488256 29.32766802 337.61742297 30.5 340.9375 C30.86770508 341.98075439 31.23541016 343.02400879 31.61425781 344.09887695 C33.98592954 350.6555742 36.74662508 356.83596472 40 363 C40.82564453 364.61261719 40.82564453 364.61261719 41.66796875 366.2578125 C48.72159098 379.56721794 56.6558881 392.17515043 66 404 C66.71800781 404.91136719 67.43601562 405.82273437 68.17578125 406.76171875 C73.82023851 413.78971971 79.82608923 420.43903978 86 427 C86.61617188 427.65871094 87.23234375 428.31742187 87.8671875 428.99609375 C92.01210405 433.28975132 96.5581854 437.0307383 101.2109375 440.76171875 C102.90047255 442.11760612 104.57666954 443.49067496 106.2265625 444.89453125 C153.26729083 484.37217428 216.79938378 500.86765732 277.29296875 496.77734375 C321.76755559 492.81536675 363.95982954 477.39698971 400 451 C400.57298828 450.58395508 401.14597656 450.16791016 401.73632812 449.73925781 C410.38746697 443.41881396 418.28844119 436.42830596 426 429 C426.52513184 428.49678223 427.05026367 427.99356445 427.59130859 427.47509766 C454.09565097 401.95574168 473.60941693 369.53224582 486 335 C486.2376709 334.34080566 486.4753418 333.68161133 486.72021484 333.00244141 C493.78371557 312.98142727 497.77047266 292.1563497 499 271 C499.33 271 499.66 271 500 271 C500 346.57 500 422.14 500 500 C335 500 170 500 0 500 C0 335 0 170 0 0 Z " fill="#FFFEFE" transform="translate(0,0)"/>
<path d="M0 0 C2.17433874 -0.00486257 4.34867299 -0.01230774 6.522995 -0.02212524 C12.39897568 -0.04085552 18.27428498 -0.02216898 24.150213 0.00453901 C30.3119191 0.0272546 36.47359423 0.01894655 42.6353302 0.01504517 C52.97737534 0.01328234 63.31915751 0.03537915 73.66113281 0.07226562 C85.60713533 0.11462994 97.55275328 0.12161172 109.49881572 0.10914171 C121.00945293 0.09774288 132.51995515 0.10905712 144.03057289 0.1314888 C148.9215171 0.14076209 153.81237849 0.14253665 158.70332909 0.13831711 C164.46305983 0.13454283 170.2224005 0.15082382 175.98204231 0.1824379 C178.09231833 0.19090343 180.202634 0.19263826 182.31291962 0.1870575 C185.19973459 0.18058267 188.08539534 0.19885203 190.97209167 0.22323608 C191.80148119 0.21567744 192.6308707 0.20811879 193.48539323 0.20033109 C201.08683915 0.31344986 207.92931077 2.91533185 213.71411133 7.93212891 C214.32899414 8.44130859 214.94387695 8.95048828 215.57739258 9.47509766 C222.30081615 17.83978523 221.98079342 27.0531249 221.93505859 37.30493164 C221.94212523 38.97474934 221.95087336 40.64456064 221.96116638 42.31436157 C221.98358674 46.8289247 221.98073794 51.34313603 221.97184491 55.85773349 C221.9667193 59.63496541 221.97404032 63.41213214 221.98131698 67.18935734 C221.99829264 76.10407989 221.9947737 85.01863117 221.97802734 93.93334961 C221.96110672 103.1124279 221.976945 112.29103059 222.00925022 121.47005695 C222.03598922 129.36845417 222.04321055 137.26670373 222.03473514 145.16514164 C222.02981868 149.87483947 222.03195199 154.58425125 222.05252266 159.29391289 C222.07094777 163.72402964 222.06483829 168.15346501 222.04032326 172.58354568 C222.035337 174.2031947 222.03874801 175.82289626 222.05147171 177.44250298 C222.1241906 187.49951265 221.63200461 196.14004142 214.41188908 203.8767004 C208.2230158 209.80344952 202.25268814 212.11975486 193.72558594 212.11352539 C192.99293015 212.11729187 192.26027435 212.12105835 191.50541687 212.12493896 C189.92695833 212.13133656 188.34846121 212.1310744 186.77000237 212.12475395 C184.26816654 212.11559159 181.76707183 212.12592442 179.26527405 212.14137268 C172.15700321 212.18133798 165.04879426 212.18267302 157.94042969 212.18041992 C153.58149457 212.18036876 149.22296229 212.19956229 144.86413765 212.22975349 C142.4055717 212.24055087 139.94778319 212.22846797 137.48924255 212.21592712 C135.97556803 212.22483366 134.46189977 212.23490879 132.94824219 212.24633789 C131.63254745 212.24617172 130.31685272 212.24600555 128.96128845 212.24583435 C124.78584396 212.83091241 122.65164928 214.10333409 119.40161133 216.74462891 C116.43894289 221.18863157 116.63215239 225.53363968 117.40161133 230.74462891 C119.60320872 233.64146758 121.18755595 235.13760122 124.40161133 236.74462891 C125.7670069 236.86039811 127.13717016 236.92309491 128.50708008 236.95556641 C129.3262793 236.98392578 130.14547852 237.01228516 130.98950195 237.04150391 C132.70284188 237.09299421 134.41641034 237.13743396 136.13012695 237.17431641 C142.65898557 237.41895748 147.63718233 238.4166887 152.77661133 242.74462891 C155.82954648 246.50208755 155.79173741 250.06311592 155.40161133 254.74462891 C154.08992698 258.22344391 152.29067885 260.98612543 149.43492126 263.42250061 C144.85520044 265.41866276 140.5007407 265.17030827 135.55615234 265.14868164 C133.91628357 265.15897652 133.91628357 265.15897652 132.24328613 265.16947937 C128.63056439 265.18777604 125.01827571 265.18390562 121.40551758 265.17822266 C118.89354816 265.18278305 116.38157999 265.18808819 113.86961365 265.19410706 C108.60476744 265.20304379 103.34003361 265.20084237 98.07519531 265.19067383 C91.99761351 265.17919462 85.92047309 265.19326682 79.84294945 265.2200703 C73.98617285 265.2449289 68.12956759 265.24740022 62.27274895 265.24095345 C59.78526004 265.24080004 57.29776272 265.24686032 54.81030464 265.25924492 C51.33202408 265.27412238 47.85471501 265.26350041 44.37646484 265.24633789 C43.34925827 265.25600586 42.3220517 265.26567383 41.26371765 265.27563477 C34.09709592 265.20158986 30.98840067 263.83668868 25.58911133 259.18212891 C22.78015542 255.78181386 23.04731764 251.92529439 23.40161133 247.74462891 C25.51509597 243.81958599 27.63217924 241.10916064 31.40161133 238.74462891 C33.68823242 238.35986328 33.68823242 238.35986328 36.17504883 238.33837891 C37.08254883 238.31646484 37.99004883 238.29455078 38.92504883 238.27197266 C39.86606445 238.26294922 40.80708008 238.25392578 41.77661133 238.24462891 C49.38304306 238.17108606 54.90516076 237.9650439 60.77661133 232.55712891 C62.9368172 228.81831105 63.09641469 225.96491598 62.40161133 221.74462891 C60.51555684 217.13427348 57.6841023 215.15776589 53.40161133 212.74462891 C49.80373796 212.16681701 49.80373796 212.16681701 45.90258789 212.27807617 C44.813461 212.27461685 44.813461 212.27461685 43.70233154 212.27108765 C42.13420924 212.26846859 40.56605102 212.27484946 38.99799347 212.28933907 C36.50761893 212.31134099 34.01845157 212.30747098 31.52801514 212.29685974 C25.34165482 212.27525419 19.15556555 212.29245867 12.96923828 212.31835938 C7.74009026 212.33985884 2.51172105 212.34156677 -2.71741486 212.31544304 C-5.15610017 212.3111266 -7.59339247 212.33562993 -10.03192139 212.36097717 C-19.36980496 212.37027816 -27.01592301 211.5146309 -34.37957764 205.22267151 C-43.01255316 196.20115754 -43.18172934 185.11973472 -43.1159668 173.33032227 C-43.12139573 171.68829225 -43.1285227 170.04626712 -43.13720703 168.4042511 C-43.15535028 163.9703732 -43.14841071 159.53687005 -43.13569069 155.1029861 C-43.12551785 150.44939001 -43.13496806 145.79582461 -43.14123535 141.14222717 C-43.1484986 133.33051836 -43.13895809 125.51896115 -43.11987305 117.70727539 C-43.09809921 108.69123536 -43.10516469 99.67555711 -43.12717867 90.65952581 C-43.14536132 82.90040532 -43.14787723 75.1413934 -43.13742399 67.38225847 C-43.13120577 62.75593264 -43.13030739 58.12977659 -43.14356995 53.50346184 C-43.15516993 49.15383878 -43.14702749 44.80467993 -43.12399292 40.45510674 C-43.11872822 38.86406727 -43.12018105 37.27298837 -43.12904358 35.68196487 C-43.18072701 25.45681733 -42.64915374 16.00699869 -35.27573872 8.14723778 C-24.60105672 -0.77898709 -13.17913576 -0.10349882 0 0 Z " fill="#FF914E" transform="translate(167.598388671875,122.25537109375)"/>
<path d="M0 0 C2.17433874 -0.00486257 4.34867299 -0.01230774 6.522995 -0.02212524 C12.39897568 -0.04085552 18.27428498 -0.02216898 24.150213 0.00453901 C30.3119191 0.0272546 36.47359423 0.01894655 42.6353302 0.01504517 C52.97737534 0.01328234 63.31915751 0.03537915 73.66113281 0.07226562 C85.60713533 0.11462994 97.55275328 0.12161172 109.49881572 0.10914171 C121.00945293 0.09774288 132.51995515 0.10905712 144.03057289 0.1314888 C148.9215171 0.14076209 153.81237849 0.14253665 158.70332909 0.13831711 C164.46305983 0.13454283 170.2224005 0.15082382 175.98204231 0.1824379 C178.09231833 0.19090343 180.202634 0.19263826 182.31291962 0.1870575 C185.19973459 0.18058267 188.08539534 0.19885203 190.97209167 0.22323608 C191.80148119 0.21567744 192.6308707 0.20811879 193.48539323 0.20033109 C201.08683915 0.31344986 207.92931077 2.91533185 213.71411133 7.93212891 C214.32899414 8.44130859 214.94387695 8.95048828 215.57739258 9.47509766 C222.30081615 17.83978523 221.98079342 27.0531249 221.93505859 37.30493164 C221.94212523 38.97474934 221.95087336 40.64456064 221.96116638 42.31436157 C221.98358674 46.8289247 221.98073794 51.34313603 221.97184491 55.85773349 C221.9667193 59.63496541 221.97404032 63.41213214 221.98131698 67.18935734 C221.99829264 76.10407989 221.9947737 85.01863117 221.97802734 93.93334961 C221.96110672 103.1124279 221.976945 112.29103059 222.00925022 121.47005695 C222.03598922 129.36845417 222.04321055 137.26670373 222.03473514 145.16514164 C222.02981868 149.87483947 222.03195199 154.58425125 222.05252266 159.29391289 C222.07094777 163.72402964 222.06483829 168.15346501 222.04032326 172.58354568 C222.035337 174.2031947 222.03874801 175.82289626 222.05147171 177.44250298 C222.1241906 187.49951265 221.63200461 196.14004142 214.41188908 203.8767004 C208.2230158 209.80344952 202.25268814 212.11975486 193.72558594 212.11352539 C192.99293015 212.11729187 192.26027435 212.12105835 191.50541687 212.12493896 C189.92695833 212.13133656 188.34846121 212.1310744 186.77000237 212.12475395 C184.26816654 212.11559159 181.76707183 212.12592442 179.26527405 212.14137268 C172.15700321 212.18133798 165.04879426 212.18267302 157.94042969 212.18041992 C153.58149457 212.18036876 149.22296229 212.19956229 144.86413765 212.22975349 C142.4055717 212.24055087 139.94778319 212.22846797 137.48924255 212.21592712 C135.97556803 212.22483366 134.46189977 212.23490879 132.94824219 212.24633789 C131.63254745 212.24617172 130.31685272 212.24600555 128.96128845 212.24583435 C124.78584396 212.83091241 122.65164928 214.10333409 119.40161133 216.74462891 C116.43894289 221.18863157 116.63215239 225.53363968 117.40161133 230.74462891 C119.60320872 233.64146758 121.18755595 235.13760122 124.40161133 236.74462891 C125.7670069 236.86039811 127.13717016 236.92309491 128.50708008 236.95556641 C129.3262793 236.98392578 130.14547852 237.01228516 130.98950195 237.04150391 C132.70284188 237.09299421 134.41641034 237.13743396 136.13012695 237.17431641 C142.65898557 237.41895748 147.63718233 238.4166887 152.77661133 242.74462891 C155.82954648 246.50208755 155.79173741 250.06311592 155.40161133 254.74462891 C154.08992698 258.22344391 152.29067885 260.98612543 149.43492126 263.42250061 C144.85520044 265.41866276 140.5007407 265.17030827 135.55615234 265.14868164 C133.91628357 265.15897652 133.91628357 265.15897652 132.24328613 265.16947937 C128.63056439 265.18777604 125.01827571 265.18390562 121.40551758 265.17822266 C118.89354816 265.18278305 116.38157999 265.18808819 113.86961365 265.19410706 C108.60476744 265.20304379 103.34003361 265.20084237 98.07519531 265.19067383 C91.99761351 265.17919462 85.92047309 265.19326682 79.84294945 265.2200703 C73.98617285 265.2449289 68.12956759 265.24740022 62.27274895 265.24095345 C59.78526004 265.24080004 57.29776272 265.24686032 54.81030464 265.25924492 C51.33202408 265.27412238 47.85471501 265.26350041 44.37646484 265.24633789 C43.34925827 265.25600586 42.3220517 265.26567383 41.26371765 265.27563477 C34.09709592 265.20158986 30.98840067 263.83668868 25.58911133 259.18212891 C22.78015542 255.78181386 23.04731764 251.92529439 23.40161133 247.74462891 C25.51509597 243.81958599 27.63217924 241.10916064 31.40161133 238.74462891 C33.68823242 238.35986328 33.68823242 238.35986328 36.17504883 238.33837891 C37.08254883 238.31646484 37.99004883 238.29455078 38.92504883 238.27197266 C39.86606445 238.26294922 40.80708008 238.25392578 41.77661133 238.24462891 C49.38304306 238.17108606 54.90516076 237.9650439 60.77661133 232.55712891 C62.9368172 228.81831105 63.09641469 225.96491598 62.40161133 221.74462891 C60.51555684 217.13427348 57.6841023 215.15776589 53.40161133 212.74462891 C49.80373796 212.16681701 49.80373796 212.16681701 45.90258789 212.27807617 C44.813461 212.27461685 44.813461 212.27461685 43.70233154 212.27108765 C42.13420924 212.26846859 40.56605102 212.27484946 38.99799347 212.28933907 C36.50761893 212.31134099 34.01845157 212.30747098 31.52801514 212.29685974 C25.34165482 212.27525419 19.15556555 212.29245867 12.96923828 212.31835938 C7.74009026 212.33985884 2.51172105 212.34156677 -2.71741486 212.31544304 C-5.15610017 212.3111266 -7.59339247 212.33562993 -10.03192139 212.36097717 C-19.36980496 212.37027816 -27.01592301 211.5146309 -34.37957764 205.22267151 C-43.01255316 196.20115754 -43.18172934 185.11973472 -43.1159668 173.33032227 C-43.12139573 171.68829225 -43.1285227 170.04626712 -43.13720703 168.4042511 C-43.15535028 163.9703732 -43.14841071 159.53687005 -43.13569069 155.1029861 C-43.12551785 150.44939001 -43.13496806 145.79582461 -43.14123535 141.14222717 C-43.1484986 133.33051836 -43.13895809 125.51896115 -43.11987305 117.70727539 C-43.09809921 108.69123536 -43.10516469 99.67555711 -43.12717867 90.65952581 C-43.14536132 82.90040532 -43.14787723 75.1413934 -43.13742399 67.38225847 C-43.13120577 62.75593264 -43.13030739 58.12977659 -43.14356995 53.50346184 C-43.15516993 49.15383878 -43.14702749 44.80467993 -43.12399292 40.45510674 C-43.11872822 38.86406727 -43.12018105 37.27298837 -43.12904358 35.68196487 C-43.18072701 25.45681733 -42.64915374 16.00699869 -35.27573872 8.14723778 C-24.60105672 -0.77898709 -13.17913576 -0.10349882 0 0 Z M-11.59838867 31.74462891 C-12.41271362 32.5662854 -13.22703857 33.38794189 -14.06604004 34.23449707 C-16.45550605 39.70801695 -16.15423916 44.99801403 -16.1159668 50.90673828 C-16.1213919 52.24763243 -16.12851674 53.58852062 -16.13720703 54.92939758 C-16.15539762 58.55964415 -16.14839086 62.18943455 -16.13569069 65.8196888 C-16.12554073 69.62455572 -16.1349619 73.42938442 -16.14123535 77.23425293 C-16.14850598 83.62303659 -16.13893953 90.0116351 -16.11987305 96.40039062 C-16.09810527 103.77935102 -16.10515707 111.15786929 -16.12717867 118.53681898 C-16.14534946 124.88011943 -16.14788284 131.22328702 -16.13742399 137.56660509 C-16.13119823 141.35174332 -16.13032797 145.13667394 -16.14356995 148.92179871 C-16.15515248 152.48099072 -16.14705982 156.03961451 -16.12399292 159.59874535 C-16.11620892 161.52267559 -16.12804129 163.44665406 -16.14050293 165.37055969 C-16.07783964 171.77236989 -16.00993288 175.93067776 -11.59838867 180.74462891 C-6.55977494 185.29167057 -2.77878755 185.89393351 3.80778503 185.89852905 C4.56832807 185.90291131 5.32887111 185.90729356 6.11246091 185.91180861 C8.66872644 185.92519572 11.22495748 185.93137528 13.78125 185.9375 C15.61105505 185.94540107 17.44085855 185.95367002 19.2706604 185.96228027 C25.28695182 185.98850088 31.3032502 186.00380842 37.31958008 186.01806641 C39.39064348 186.02342616 41.46170684 186.02880367 43.53277016 186.03419876 C52.1481157 186.05582795 60.76345936 186.07456448 69.37882519 186.08582115 C81.72539415 186.102059 94.07164833 186.13523249 106.41809863 186.192222 C115.09931639 186.23092685 123.78044998 186.25045453 132.46175176 186.25574172 C137.64658725 186.25939454 142.83108701 186.27140863 148.01582909 186.30384445 C152.89556132 186.33393434 157.77475485 186.34023356 162.65456009 186.32846069 C164.44277391 186.32824003 166.23101279 186.33653884 168.01914024 186.35411453 C180.63024911 186.67492034 180.63024911 186.67492034 191.40161133 180.74462891 C194.91220962 176.10157955 195.52288224 171.93502259 195.55551147 166.22355652 C195.56411194 165.10067734 195.5727124 163.97779816 195.58157349 162.82089233 C195.58583344 161.59327179 195.59009338 160.36565125 195.59448242 159.10083008 C195.60265991 157.80451157 195.6108374 156.50819305 195.6192627 155.17259216 C195.64542089 150.87761498 195.66078202 146.58262835 195.67504883 142.28759766 C195.68041066 140.80683194 195.68578818 139.32606628 195.69118118 137.84530067 C195.71279893 131.68504142 195.73153516 125.52478473 195.74280357 119.36449718 C195.7590424 110.54629837 195.79223067 101.72854013 195.84920442 92.91050738 C195.887934 86.70399924 195.90743968 80.49760881 195.91272414 74.29098302 C195.91637291 70.58669874 195.92834312 66.88288504 195.96082687 63.17873192 C195.99656531 59.04442601 195.99252908 54.9110651 195.98510742 50.77661133 C196.00151276 49.55506348 196.01791809 48.33351563 196.03482056 47.07495117 C195.98969426 38.94106784 195.98969426 38.94106784 192.02220249 32.10860825 C183.79678978 25.18564504 173.68654601 26.16945475 163.52441406 26.21118164 C161.71342264 26.20411643 159.90243712 26.19536889 158.09146118 26.18507385 C153.19275546 26.16264092 148.29437374 26.16550482 143.39563632 26.17439532 C139.30009568 26.17951715 135.20461528 26.17220319 131.10908085 26.16492325 C121.44652731 26.14794454 111.78413179 26.15147076 102.12158203 26.16821289 C92.16313077 26.18514483 82.20511752 26.16928027 72.24671406 26.13699001 C63.68423744 26.11028102 55.12189706 26.10302129 46.55938298 26.11150509 C41.45069308 26.11642891 36.34226685 26.11424762 31.23361015 26.09371758 C26.4308854 26.07533909 21.62879047 26.08134566 16.8260994 26.10591698 C15.06693014 26.11091737 13.3077127 26.10745515 11.54858208 26.09476852 C-1.06052519 25.67167189 -1.06052519 25.67167189 -11.59838867 31.74462891 Z " fill="#FFFEFD" transform="translate(167.598388671875,122.25537109375)"/>
</svg>
